<svg xmlns="http://www.w3.org/2000/svg" width="25" height="24" viewBox="0 0 25 24">
  <defs>
    <style>
      .cls-1 {
        fill: #ebebeb;
        fill-rule: evenodd;
      }
    </style>
  </defs>
  <path id="Forma_1" data-name="Forma 1" class="cls-1" d="M335.192,13H311.808a0.808,0.808,0,0,0-.808.806v3.582a0.808,0.808,0,0,0,.808.806h23.383A0.808,0.808,0,0,0,336,17.388V13.805A0.808,0.808,0,0,0,335.192,13Zm0,9.4H311.808a0.808,0.808,0,0,0-.808.806v3.583a0.808,0.808,0,0,0,.808.806h23.383A0.807,0.807,0,0,0,336,26.791V23.209A0.808,0.808,0,0,0,335.192,22.4Zm0,9.4H311.808a0.808,0.808,0,0,0-.808.806v3.582a0.808,0.808,0,0,0,.808.806h23.383A0.808,0.808,0,0,0,336,36.195V32.612A0.808,0.808,0,0,0,335.192,31.806Z" transform="translate(-311 -13)"/>
</svg>
